<?xml version="1.0" encoding="UTF-8"?>
<!DOCTYPE svg PUBLIC "-//W3C//DTD SVG 1.1//EN" "http://www.w3.org/Graphics/SVG/1.1/DTD/svg11.dtd">
<!-- Creator: CorelDRAW 2020 (64 Bit) -->
<svg xmlns="http://www.w3.org/2000/svg" xml:space="preserve" width="105.833mm" height="105.833mm" version="1.1" style="shape-rendering:geometricPrecision; text-rendering:geometricPrecision; image-rendering:optimizeQuality; fill-rule:evenodd; clip-rule:evenodd"
viewBox="0 0 10583.32 10583.32"
 xmlns:xlink="http://www.w3.org/1999/xlink"
 xmlns:xodm="http://www.corel.com/coreldraw/odm/2003">
 <defs>
  <style type="text/css">
   <![CDATA[
    .fil0 {fill:none}
    .fil2 {fill:black}
    .fil1 {fill:black;fill-rule:nonzero}
   ]]>
  </style>
 </defs>
 <g id="Camada_x0020_1">
  <metadata id="CorelCorpID_0Corel-Layer"/>
  <rect class="fil0" x="-0.02" y="-0.01" width="10583.33" height="10583.33"/>
  <g id="_1583407464672">
   <path class="fil1" d="M1789.15 4181.13c689.93,-1845.8 2180.73,-1806.3 3671.5,-1766.79 984.31,26.08 1968.63,52.16 2483.91,-650.45l782.12 542.79c-704.59,960.74 -1728.37,1064.12 -2794.69,1053.26l0 1406.33c831.1,17.98 1649.11,18.84 1949.77,-656.99l879.89 370.42c-552.62,1242.17 -1684.27,1246.87 -2829.66,1222.2l0 1084.86 0.01 0 -0.01 1.11 0 3.03 -0.02 0c-1.15,559.61 -234.19,1066.19 -610.42,1433.14 -377.16,367.86 -898.17,595.4 -1473.61,595.4 -575.45,0 -1096.45,-227.54 -1473.61,-595.4 -377.16,-367.87 -610.44,-876.03 -610.44,-1437.28l962.61 0c0,302.09 125.51,575.55 328.42,773.47 202.92,197.91 483.29,320.32 793.02,320.32 309.73,0 590.11,-122.42 793.02,-320.33 202.66,-197.66 328.1,-470.69 328.41,-772.33l0 -1076.45c-506.76,45.12 -933.48,195.05 -1133.56,641.64l-879.88 -374.09c420.7,-939.01 1174.12,-1167.24 2013.44,-1211.93l0 -1426.77c-978.79,-6.19 -1886.89,114.15 -2277.78,1159.91l-902.44 -319.07z"/>
   <path class="fil2" d="M8819.44 7097.76l-673.57 656.95 -336.78 328.49c-185.24,180.66 -488.32,180.66 -673.56,0l-336.78 -328.49 673.56 -656.95 336.79 -328.49c185.23,-180.66 488.32,-180.66 673.55,0l336.79 328.49z"/>
  </g>
 </g>
</svg>
